<svg width="67" height="59" viewBox="0 0 67 59" fill="none" xmlns="http://www.w3.org/2000/svg">
<path d="M33.5 0.270752C14.9912 0.270752 0 13.6907 0 30.2421C0 43.4867 9.59775 54.7183 22.9056 58.6782C24.5806 58.9604 25.1948 58.0326 25.1948 57.2371C25.1948 56.5254 25.1669 54.6395 25.1529 52.1411C15.8343 53.9482 13.869 48.1201 13.869 48.1201C12.3447 44.6609 10.1421 43.7358 10.1421 43.7358C7.10758 41.8778 10.3766 41.9159 10.3766 41.9159C13.7406 42.1244 15.5077 45.0041 15.5077 45.0041C18.4948 49.5867 23.3495 48.2625 25.2646 47.4974C25.5661 45.5581 26.4287 44.239 27.3862 43.4892C19.9465 42.7394 12.127 40.1622 12.127 28.6789C12.127 25.4078 13.4251 22.734 15.5747 20.6371C15.1978 19.8797 14.0672 16.8322 15.8678 12.7046C15.8678 12.7046 18.6735 11.9014 25.0803 15.7775C27.7603 15.1115 30.6078 14.7811 33.4553 14.7659C36.3028 14.7811 39.1503 15.1115 41.8303 15.7775C48.1953 11.9014 51.0009 12.7046 51.0009 12.7046C52.8016 16.8322 51.671 19.8797 51.336 20.6371C53.4716 22.734 54.7697 25.4078 54.7697 28.6789C54.7697 40.1927 46.9391 42.7267 39.4853 43.4638C40.6578 44.3636 41.7466 46.2012 41.7466 49.0097C41.7466 53.0205 41.7047 56.2433 41.7047 57.2168C41.7047 58.0021 42.291 58.94 44.0078 58.6401C57.4106 54.7056 67 43.4664 67 30.2421C67 13.6907 52.0004 0.270752 33.5 0.270752Z" fill="url(#paint0_linear_141463_13)"/>
<defs>
<linearGradient id="paint0_linear_141463_13" x1="33.5" y1="0.270752" x2="33.5" y2="58.7299" gradientUnits="userSpaceOnUse">
<stop stop-color="#54545E"/>
<stop offset="1" stop-color="#54545E"/>
</linearGradient>
</defs>
</svg>
